<svg version="1.1" id="Layer_1" xmlns="http://www.w3.org/2000/svg" x="0" y="0" style="enable-background:new 0 0 236 61" xml:space="preserve" width="236" height="61"><style>.st0{fill:#ddd}.st1{fill:#eee}</style><path class="st0" d="M30.4 6c13.5 0 24.4 11 24.4 24.4s-11 24.4-24.4 24.4S6 43.9 6 30.4 17 6 30.4 6m0-5C14.2 1 1 14.2 1 30.4s13.2 29.4 29.4 29.4 29.4-13.2 29.4-29.4S46.7 1 30.4 1z"/><path class="st0" d="M30.4 7.6C17.7 7.6 7.5 17.9 7.5 30.5c0 12.6 10.2 22.9 22.9 22.9s22.9-10.2 22.9-22.9C53.2 17.9 43 7.6 30.4 7.6zm-6.2 25.2a3.32 3.32 0 0 1-4.7 0 3.32 3.32 0 0 1 0-4.7c1.3-1.3 3.4-1.3 4.7 0 1.3 1.3 1.3 3.4 0 4.7zm8 8c-1.3 1.3-3.4 1.3-4.7 0s-1.3-3.4 0-4.7c1.3-1.3 3.4-1.3 4.7 0s1.3 3.4 0 4.7zm0-16.1a3.32 3.32 0 0 1-4.7 0 3.32 3.32 0 0 1 0-4.7c1.3-1.3 3.4-1.3 4.7 0 1.3 1.3 1.3 3.4 0 4.7zm8.1 8.1c-1.3 1.3-3.4 1.3-4.7 0s-1.3-3.4 0-4.7c1.3-1.3 3.4-1.3 4.7 0 1.3 1.3 1.3 3.4 0 4.7z"/><path class="st1" d="M105.5 9.1c-11.7 0-21.2 9.5-21.2 21.2s9.5 21.2 21.2 21.2 21.2-9.5 21.2-21.2-9.4-21.2-21.2-21.2zM99.7 39c-1.8 0-3.2-1.4-3.2-3.2s1.4-3.2 3.2-3.2c1.8 0 3.2 1.4 3.2 3.2s-1.4 3.2-3.2 3.2zm0-10.9c-1.8 0-3.2-1.4-3.2-3.2 0-1.8 1.4-3.2 3.2-3.2 1.8 0 3.2 1.4 3.2 3.2.1 1.7-1.4 3.2-3.2 3.2zm11 10.9c-1.8 0-3.2-1.4-3.2-3.2s1.4-3.2 3.2-3.2c1.8 0 3.2 1.4 3.2 3.2s-1.4 3.2-3.2 3.2zm0-10.9c-1.8 0-3.2-1.4-3.2-3.2 0-1.8 1.4-3.2 3.2-3.2 1.8 0 3.2 1.4 3.2 3.2 0 1.7-1.4 3.2-3.2 3.2zm102.4-19c-11.7 0-21.2 9.5-21.2 21.2s9.5 21.2 21.2 21.2 21.2-9.4 21.2-21.2-9.5-21.2-21.2-21.2zM207.3 39c-1.8 0-3.2-1.4-3.2-3.2s1.4-3.2 3.2-3.2c1.8 0 3.2 1.4 3.2 3.2S209 39 207.3 39zm0-10.9c-1.8 0-3.2-1.4-3.2-3.2 0-1.8 1.4-3.2 3.2-3.2 1.8 0 3.2 1.4 3.2 3.2 0 1.7-1.5 3.2-3.2 3.2zM218.2 39c-1.8 0-3.2-1.4-3.2-3.2s1.4-3.2 3.2-3.2 3.2 1.4 3.2 3.2-1.4 3.2-3.2 3.2zm0-10.9c-1.8 0-3.2-1.4-3.2-3.2 0-1.8 1.4-3.2 3.2-3.2s3.2 1.4 3.2 3.2c0 1.7-1.4 3.2-3.2 3.2zM159.4 6c13.5 0 24.4 11 24.4 24.4s-11 24.4-24.4 24.4c-13.4 0-24.4-11-24.4-24.4S145.9 6 159.4 6m0-5C143.2 1 130 14.2 130 30.4s13.2 29.4 29.4 29.4 29.4-13.2 29.4-29.4S175.6 1 159.4 1z"/><path class="st1" d="M159.4 7.7c-12.6 0-22.9 10.2-22.9 22.9 0 12.6 10.2 22.9 22.9 22.9s22.8-10.3 22.8-23c0-12.6-10.2-22.8-22.8-22.8zm-6.2 25.1a3.32 3.32 0 0 1-4.7 0 3.32 3.32 0 0 1 0-4.7c1.3-1.3 3.4-1.3 4.7 0 1.3 1.3 1.3 3.4 0 4.7zm8 8.1a3.32 3.32 0 0 1-4.7 0c-1.3-1.3-1.3-3.4 0-4.7s3.4-1.3 4.7 0c1.3 1.3 1.3 3.4 0 4.7zm0-16.2a3.32 3.32 0 0 1-4.7 0 3.32 3.32 0 0 1 0-4.7c1.3-1.3 3.4-1.3 4.7 0 1.3 1.3 1.3 3.4 0 4.7zm8.1 8.1a3.32 3.32 0 0 1-4.7 0 3.32 3.32 0 0 1 0-4.7c1.3-1.3 3.4-1.3 4.7 0 1.3 1.3 1.3 3.4 0 4.7z"/></svg>